<svg xmlns="http://www.w3.org/2000/svg" xmlns:xlink="http://www.w3.org/1999/xlink" width="500" zoomAndPan="magnify" viewBox="0 0 375 374.999991" height="500" preserveAspectRatio="xMidYMid meet" version="1.0"><defs><clipPath id="e42b1b6da0"><path d="M 147 175.601562 L 216.894531 175.601562 L 216.894531 230 L 147 230 Z M 147 175.601562 " clip-rule="nonzero"/></clipPath><clipPath id="29489ca99a"><path d="M 208.320312 232.003906 L 198.824219 189.457031 L 157.179688 188.527344 C 157.179688 188.527344 150.515625 187.5 146.242188 181.835938 C 146.242188 181.835938 146.242188 176.488281 147.871094 175.941406 L 211.945312 177.632812 L 214.792969 222.09375 C 214.792969 222.09375 221.097656 235.007812 208.3125 232.011719 Z M 208.320312 232.003906 " clip-rule="evenodd"/></clipPath><clipPath id="7ac13f8324"><path d="M 192.070312 285 L 264.769531 285 L 264.769531 317 L 192.070312 317 Z M 192.070312 285 " clip-rule="nonzero"/></clipPath><clipPath id="b03e03299b"><path d="M 201.21875 329.214844 C 201.21875 329.214844 243.492188 322.1875 261.996094 313.648438 C 261.996094 313.648438 265.507812 310.058594 263.351562 303.3125 C 263.351562 303.3125 219.546875 286.179688 195.714844 285.417969 C 195.714844 285.417969 184.675781 322.515625 201.226562 329.214844 Z M 201.21875 329.214844 " clip-rule="evenodd"/></clipPath><clipPath id="5b70f10829"><path d="M 152.171875 234.105469 L 235 234.105469 L 235 317 L 152.171875 317 Z M 152.171875 234.105469 " clip-rule="nonzero"/></clipPath><clipPath id="e87ce24c42"><path d="M 241.816406 250.957031 C 241.816406 250.957031 230.644531 256.140625 220.09375 264.898438 C 212.089844 271.539062 202.867188 303.640625 198.878906 318.773438 C 197.609375 323.59375 201.351562 329.214844 201.351562 329.214844 C 201.351562 329.214844 167.707031 322.707031 154.53125 314.21875 C 154.53125 314.21875 152.09375 307.675781 152.941406 303.960938 C 155.675781 292.03125 162.253906 267.097656 174.445312 247.082031 C 174.445312 247.082031 190.410156 234.628906 203.789062 234.9375 L 241.71875 243.136719 Z M 241.816406 250.957031 " clip-rule="evenodd"/></clipPath><clipPath id="627299ca3e"><path d="M 241 232 L 260 232 L 260 262 L 241 262 Z M 241 232 " clip-rule="nonzero"/></clipPath><clipPath id="56cea49ca4"><path d="M 244.414062 227.925781 C 240.71875 228.085938 233.289062 229.914062 230.894531 244.855469 C 228.269531 261.265625 235.894531 263.488281 240.691406 264.25 C 257.546875 266.945312 259.664062 255.945312 261.144531 246.691406 C 262.863281 235.941406 261.152344 227.191406 244.414062 227.917969 Z M 244.414062 227.925781 " clip-rule="evenodd"/></clipPath><clipPath id="4b2cca6bb3"><path d="M 67 27.398438 L 132 27.398438 L 132 34 L 67 34 Z M 67 27.398438 " clip-rule="nonzero"/></clipPath><clipPath id="092319de96"><path d="M 144.191406 169 L 152 169 L 152 173 L 144.191406 173 Z M 144.191406 169 " clip-rule="nonzero"/></clipPath><clipPath id="dcbd7185eb"><path d="M 155.796875 168.414062 C 155.796875 168.414062 154.46875 164.152344 150.390625 165.410156 C 150.390625 165.410156 148.875 166.394531 149.148438 167.289062 C 149.148438 167.289062 147.101562 166.828125 145.453125 168.210938 C 143.800781 169.585938 144.371094 176.675781 145.824219 179.644531 C 145.824219 179.644531 146.3125 180.523438 149.664062 180.824219 C 151.011719 180.9375 154.035156 179.980469 155.59375 180.0625 C 156.84375 180.125 155.808594 168.421875 155.808594 168.421875 Z M 155.796875 168.414062 " clip-rule="evenodd"/></clipPath><clipPath id="2bec4b31e3"><path d="M 148 166 L 154 166 L 154 169 L 148 169 Z M 148 166 " clip-rule="nonzero"/></clipPath><clipPath id="40f65c4d13"><path d="M 155.796875 168.414062 C 155.796875 168.414062 154.46875 164.152344 150.390625 165.410156 C 150.390625 165.410156 148.875 166.394531 149.148438 167.289062 C 149.148438 167.289062 147.101562 166.828125 145.453125 168.210938 C 143.800781 169.585938 144.371094 176.675781 145.824219 179.644531 C 145.824219 179.644531 146.3125 180.523438 149.664062 180.824219 C 151.011719 180.9375 154.035156 179.980469 155.59375 180.0625 C 156.84375 180.125 155.808594 168.421875 155.808594 168.421875 Z M 155.796875 168.414062 " clip-rule="evenodd"/></clipPath><clipPath id="ac3fd0a715"><path d="M 144.191406 172 L 152 172 L 152 176 L 144.191406 176 Z M 144.191406 172 " clip-rule="nonzero"/></clipPath><clipPath id="b46dee890b"><path d="M 155.796875 168.414062 C 155.796875 168.414062 154.46875 164.152344 150.390625 165.410156 C 150.390625 165.410156 148.875 166.394531 149.148438 167.289062 C 149.148438 167.289062 147.101562 166.828125 145.453125 168.210938 C 143.800781 169.585938 144.371094 176.675781 145.824219 179.644531 C 145.824219 179.644531 146.3125 180.523438 149.664062 180.824219 C 151.011719 180.9375 154.035156 179.980469 155.59375 180.0625 C 156.84375 180.125 155.808594 168.421875 155.808594 168.421875 Z M 155.796875 168.414062 " clip-rule="evenodd"/></clipPath><clipPath id="9de275ac4d"><path d="M 144.191406 175 L 151 175 L 151 179 L 144.191406 179 Z M 144.191406 175 " clip-rule="nonzero"/></clipPath><clipPath id="a647033dcd"><path d="M 155.796875 168.414062 C 155.796875 168.414062 154.46875 164.152344 150.390625 165.410156 C 150.390625 165.410156 148.875 166.394531 149.148438 167.289062 C 149.148438 167.289062 147.101562 166.828125 145.453125 168.210938 C 143.800781 169.585938 144.371094 176.675781 145.824219 179.644531 C 145.824219 179.644531 146.3125 180.523438 149.664062 180.824219 C 151.011719 180.9375 154.035156 179.980469 155.59375 180.0625 C 156.84375 180.125 155.808594 168.421875 155.808594 168.421875 Z M 155.796875 168.414062 " clip-rule="evenodd"/></clipPath><clipPath id="958711939f"><path d="M 148 178 L 151 178 L 151 180.921875 L 148 180.921875 Z M 148 178 " clip-rule="nonzero"/></clipPath><clipPath id="50ab8d1a23"><path d="M 155.796875 168.414062 C 155.796875 168.414062 154.46875 164.152344 150.390625 165.410156 C 150.390625 165.410156 148.875 166.394531 149.148438 167.289062 C 149.148438 167.289062 147.101562 166.828125 145.453125 168.210938 C 143.800781 169.585938 144.371094 176.675781 145.824219 179.644531 C 145.824219 179.644531 146.3125 180.523438 149.664062 180.824219 C 151.011719 180.9375 154.035156 179.980469 155.59375 180.0625 C 156.84375 180.125 155.808594 168.421875 155.808594 168.421875 Z M 155.796875 168.414062 " clip-rule="evenodd"/></clipPath><clipPath id="5ddec04373"><path d="M 158 200 L 213 200 L 213 245 L 158 245 Z M 158 200 " clip-rule="nonzero"/></clipPath><clipPath id="9a7790bd6c"><path d="M 157.402344 246.105469 C 158.128906 245.035156 159.140625 243.582031 158.769531 243.582031 C 156.402344 243.582031 147.855469 234.601562 147.855469 234.601562 C 147.746094 234.601562 154.699219 216.121094 170.417969 206.769531 C 178.46875 201.980469 196.855469 191.042969 196.855469 191.042969 C 204.917969 189.902344 213.535156 191.566406 224.136719 191.894531 C 239.972656 192.390625 254.636719 193.550781 254.636719 193.550781 C 254.636719 193.550781 257.128906 209.4375 250.097656 213.902344 C 238.039062 221.5625 196.28125 230.160156 196.28125 230.160156 C 196.28125 230.160156 184.417969 244.847656 177.429688 251.59375 C 171.101562 257.710938 159.308594 251.539062 157.386719 246.097656 Z M 157.402344 246.105469 " clip-rule="evenodd"/></clipPath><clipPath id="b2715f0120"><path d="M 191 186.238281 L 260.339844 186.238281 L 260.339844 240 L 191 240 Z M 191 186.238281 " clip-rule="nonzero"/></clipPath><clipPath id="5a40639978"><path d="M 252.011719 242.410156 L 242.515625 199.863281 L 200.875 198.933594 C 200.875 198.933594 194.207031 197.90625 189.933594 192.242188 C 189.933594 192.242188 189.933594 186.894531 191.5625 186.347656 L 255.640625 188.039062 L 258.484375 232.5 C 258.484375 232.5 264.789062 245.414062 252.003906 242.417969 Z M 252.011719 242.410156 " clip-rule="evenodd"/></clipPath><clipPath id="a549b5d3af"><path d="M 194 177 L 199 177 L 199 179 L 194 179 Z M 194 177 " clip-rule="nonzero"/></clipPath><clipPath id="f951f05b20"><path d="M 202.210938 180.007812 C 202.671875 180.378906 203.425781 180.789062 204.527344 180.742188 C 205.8125 180.585938 237.507812 178.804688 244.957031 178.003906 C 248.058594 177.675781 247.890625 160.3125 247.890625 160.222656 C 247.890625 160.222656 259.929688 162.6875 263.433594 161.632812 C 263.664062 167.839844 263.183594 189.015625 255.125 190.484375 C 252.980469 190.875 249.386719 191.132812 245.0625 191.285156 L 244.636719 191.300781 C 228.144531 191.886719 201.40625 191.105469 201.40625 191.105469 C 199.792969 191.105469 196.972656 191.992188 195.675781 191.878906 C 192.328125 191.574219 191.839844 190.699219 191.839844 190.699219 C 190.382812 187.730469 189.816406 180.636719 191.464844 179.265625 C 193.117188 177.890625 195.164062 178.34375 195.164062 178.34375 C 194.898438 177.445312 196.40625 176.460938 196.40625 176.460938 C 200.492188 175.203125 201.8125 179.46875 201.8125 179.46875 C 201.8125 179.46875 201.8125 179.539062 201.832031 179.671875 C 201.882812 179.714844 201.945312 179.769531 202.015625 179.847656 L 202.195312 180 Z M 202.210938 180.007812 " clip-rule="evenodd"/></clipPath><clipPath id="930bb1fa07"><path d="M 190.296875 180 L 195 180 L 195 182 L 190.296875 182 Z M 190.296875 180 " clip-rule="nonzero"/></clipPath><clipPath id="d256e1a742"><path d="M 202.210938 180.007812 C 202.671875 180.378906 203.425781 180.789062 204.527344 180.742188 C 205.8125 180.585938 237.507812 178.804688 244.957031 178.003906 C 248.058594 177.675781 247.890625 160.3125 247.890625 160.222656 C 247.890625 160.222656 259.929688 162.6875 263.433594 161.632812 C 263.664062 167.839844 263.183594 189.015625 255.125 190.484375 C 252.980469 190.875 249.386719 191.132812 245.0625 191.285156 L 244.636719 191.300781 C 228.144531 191.886719 201.40625 191.105469 201.40625 191.105469 C 199.792969 191.105469 196.972656 191.992188 195.675781 191.878906 C 192.328125 191.574219 191.839844 190.699219 191.839844 190.699219 C 190.382812 187.730469 189.816406 180.636719 191.464844 179.265625 C 193.117188 177.890625 195.164062 178.34375 195.164062 178.34375 C 194.898438 177.445312 196.40625 176.460938 196.40625 176.460938 C 200.492188 175.203125 201.8125 179.46875 201.8125 179.46875 C 201.8125 179.46875 201.8125 179.539062 201.832031 179.671875 C 201.882812 179.714844 201.945312 179.769531 202.015625 179.847656 L 202.195312 180 Z M 202.210938 180.007812 " clip-rule="evenodd"/></clipPath><clipPath id="b9556d4c77"><path d="M 190.296875 183 L 195 183 L 195 186 L 190.296875 186 Z M 190.296875 183 " clip-rule="nonzero"/></clipPath><clipPath id="b5bdef2a44"><path d="M 202.210938 180.007812 C 202.671875 180.378906 203.425781 180.789062 204.527344 180.742188 C 205.8125 180.585938 237.507812 178.804688 244.957031 178.003906 C 248.058594 177.675781 247.890625 160.3125 247.890625 160.222656 C 247.890625 160.222656 259.929688 162.6875 263.433594 161.632812 C 263.664062 167.839844 263.183594 189.015625 255.125 190.484375 C 252.980469 190.875 249.386719 191.132812 245.0625 191.285156 L 244.636719 191.300781 C 228.144531 191.886719 201.40625 191.105469 201.40625 191.105469 C 199.792969 191.105469 196.972656 191.992188 195.675781 191.878906 C 192.328125 191.574219 191.839844 190.699219 191.839844 190.699219 C 190.382812 187.730469 189.816406 180.636719 191.464844 179.265625 C 193.117188 177.890625 195.164062 178.34375 195.164062 178.34375 C 194.898438 177.445312 196.40625 176.460938 196.40625 176.460938 C 200.492188 175.203125 201.8125 179.46875 201.8125 179.46875 C 201.8125 179.46875 201.8125 179.539062 201.832031 179.671875 C 201.882812 179.714844 201.945312 179.769531 202.015625 179.847656 L 202.195312 180 Z M 202.210938 180.007812 " clip-rule="evenodd"/></clipPath><clipPath id="f389979f2a"><path d="M 190.296875 187 L 195 187 L 195 189 L 190.296875 189 Z M 190.296875 187 " clip-rule="nonzero"/></clipPath><clipPath id="f07150d2c9"><path d="M 202.210938 180.007812 C 202.671875 180.378906 203.425781 180.789062 204.527344 180.742188 C 205.8125 180.585938 237.507812 178.804688 244.957031 178.003906 C 248.058594 177.675781 247.890625 160.3125 247.890625 160.222656 C 247.890625 160.222656 259.929688 162.6875 263.433594 161.632812 C 263.664062 167.839844 263.183594 189.015625 255.125 190.484375 C 252.980469 190.875 249.386719 191.132812 245.0625 191.285156 L 244.636719 191.300781 C 228.144531 191.886719 201.40625 191.105469 201.40625 191.105469 C 199.792969 191.105469 196.972656 191.992188 195.675781 191.878906 C 192.328125 191.574219 191.839844 190.699219 191.839844 190.699219 C 190.382812 187.730469 189.816406 180.636719 191.464844 179.265625 C 193.117188 177.890625 195.164062 178.34375 195.164062 178.34375 C 194.898438 177.445312 196.40625 176.460938 196.40625 176.460938 C 200.492188 175.203125 201.8125 179.46875 201.8125 179.46875 C 201.8125 179.46875 201.8125 179.539062 201.832031 179.671875 C 201.882812 179.714844 201.945312 179.769531 202.015625 179.847656 L 202.195312 180 Z M 202.210938 180.007812 " clip-rule="evenodd"/></clipPath></defs><path fill="#b5c197" d="M 208.320312 232.003906 L 198.824219 189.457031 L 157.179688 188.527344 C 157.179688 188.527344 150.515625 187.5 146.242188 181.835938 C 146.242188 181.835938 146.242188 176.488281 147.871094 175.941406 L 211.945312 177.632812 L 214.792969 222.09375 C 214.792969 222.09375 221.097656 235.007812 208.3125 232.011719 Z M 208.320312 232.003906 " fill-opacity="1" fill-rule="evenodd"/><g clip-path="url(#e42b1b6da0)"><g clip-path="url(#29489ca99a)"><path fill="#e8dfd6" d="M 147.828125 176.097656 C 147.828125 176.097656 150.1875 181.675781 158.128906 183.714844 L 201.734375 185.335938 L 211.34375 228.777344 C 211.34375 228.777344 217.480469 231.214844 216.273438 222.386719 C 215.066406 213.558594 213.773438 175.867188 213.773438 175.867188 C 213.773438 175.867188 160.398438 164.070312 147.820312 176.097656 Z M 147.828125 176.097656 " fill-opacity="1" fill-rule="evenodd"/></g></g><path fill="#b5c197" d="M 196.308594 214.363281 C 192.609375 214.523438 185.179688 216.351562 182.785156 231.296875 C 180.160156 247.703125 187.785156 249.925781 192.582031 250.6875 C 209.4375 253.382812 211.558594 242.382812 213.039062 233.128906 C 214.757812 222.378906 213.046875 213.628906 196.308594 214.355469 Z M 196.308594 214.363281 " fill-opacity="1" fill-rule="evenodd"/><path fill="#b5c197" d="M 201.21875 329.214844 C 201.21875 329.214844 243.492188 322.1875 261.996094 313.648438 C 261.996094 313.648438 265.507812 310.058594 263.351562 303.3125 C 263.351562 303.3125 219.546875 286.179688 195.714844 285.417969 C 195.714844 285.417969 184.675781 322.515625 201.226562 329.214844 Z M 201.21875 329.214844 " fill-opacity="1" fill-rule="evenodd"/><g clip-path="url(#7ac13f8324)"><g clip-path="url(#b03e03299b)"><path fill="#e8dfd6" d="M 264.382812 303.179688 C 264.382812 303.179688 226.746094 314.632812 202.078125 316.183594 C 177.421875 317.726562 209.234375 279.601562 209.234375 279.601562 L 260.871094 291.214844 Z M 264.382812 303.179688 " fill-opacity="1" fill-rule="evenodd"/></g></g><path fill="#b5c197" d="M 241.816406 250.957031 C 241.816406 250.957031 230.644531 256.140625 220.09375 264.898438 C 212.089844 271.539062 202.867188 303.640625 198.878906 318.773438 C 197.609375 323.59375 201.351562 329.214844 201.351562 329.214844 C 201.351562 329.214844 167.707031 322.707031 154.53125 314.21875 C 154.53125 314.21875 152.09375 307.675781 152.941406 303.960938 C 155.675781 292.03125 162.253906 267.097656 174.445312 247.082031 C 174.445312 247.082031 190.410156 234.628906 203.789062 234.9375 L 241.71875 243.136719 Z M 241.816406 250.957031 " fill-opacity="1" fill-rule="evenodd"/><g clip-path="url(#5b70f10829)"><g clip-path="url(#e87ce24c42)"><path fill="#e8dfd6" d="M 172.296875 249.890625 C 172.359375 248.332031 172.707031 246.664062 173.476562 244.980469 C 177.003906 237.296875 189.703125 233.652344 189.703125 233.652344 L 231.167969 234.316406 C 231.167969 234.316406 236.355469 243.269531 233.179688 243.730469 C 229.050781 244.324219 212.398438 256.140625 212.398438 256.140625 C 212.398438 256.140625 195.730469 284.753906 189.410156 316.023438 C 189.410156 316.023438 159.671875 310.386719 148.597656 300.769531 C 138.179688 291.71875 155.175781 269.304688 155.175781 269.304688 L 172.289062 249.902344 Z M 172.296875 249.890625 " fill-opacity="1" fill-rule="evenodd"/></g></g><path fill="#b5c197" d="M 244.414062 227.925781 C 240.71875 228.085938 233.289062 229.914062 230.894531 244.855469 C 228.269531 261.265625 235.894531 263.488281 240.691406 264.25 C 257.546875 266.945312 259.664062 255.945312 261.144531 246.691406 C 262.863281 235.941406 261.152344 227.191406 244.414062 227.917969 Z M 244.414062 227.925781 " fill-opacity="1" fill-rule="evenodd"/><g clip-path="url(#627299ca3e)"><g clip-path="url(#56cea49ca4)"><path fill="#e8dfd6" d="M 252.324219 232.597656 C 249.433594 232.871094 243.597656 234.21875 241.667969 246.125 C 239.546875 259.191406 245.515625 262.195312 249.265625 261.519531 C 255.167969 260.464844 258.058594 254.597656 259.257812 247.230469 C 260.648438 238.667969 259.125 231.941406 252.3125 232.589844 Z M 252.324219 232.597656 " fill-opacity="1" fill-rule="evenodd"/></g></g><path fill="#e8dfd6" d="M 261.417969 181.78125 C 261.417969 181.78125 227.402344 166.054688 234.625 153.566406 C 238.449219 146.972656 231.140625 126.929688 243.5 117.347656 C 254.53125 108.796875 284.621094 109.789062 298.496094 116.808594 C 311.621094 123.449219 306.511719 138.375 301.121094 154.4375 C 294.417969 174.386719 283.453125 194.339844 261.417969 181.773438 Z M 261.417969 181.78125 " fill-opacity="1" fill-rule="evenodd"/><path fill="#b5c197" d="M 275.25 185.523438 C 275.25 185.523438 267.804688 203.320312 263.175781 214.375 C 262.464844 216.074219 258.992188 220.808594 257.820312 220.339844 C 251.523438 217.820312 264.574219 189.085938 266.347656 182.953125 C 268.121094 176.828125 276.960938 181.417969 275.242188 185.523438 Z M 275.25 185.523438 " fill-opacity="1" fill-rule="evenodd"/><path fill="#b5c197" d="M 169.335938 231.695312 C 169.335938 231.695312 186.644531 255.519531 251.570312 237.675781 C 260.753906 235.152344 272.441406 226.648438 263.574219 210.554688 C 254.707031 194.457031 169.335938 231.683594 169.335938 231.683594 Z M 169.335938 231.695312 " fill-opacity="1" fill-rule="evenodd"/><path fill="#e8dfd6" d="M 194.773438 219.789062 C 211.210938 211.199219 256.417969 190.8125 264.707031 213.941406 C 271.15625 231.925781 230.980469 236.179688 203.230469 235.964844 C 187.734375 235.851562 175.808594 228.226562 177.644531 224.042969 C 179.089844 220.738281 192.761719 220.835938 194.773438 219.789062 Z M 194.773438 219.789062 " fill-opacity="1" fill-rule="evenodd"/><path fill="#e8dfd6" d="M 64.398438 308.421875 L 109.800781 307.851562 C 109.800781 307.851562 108.96875 299.707031 86.898438 299.9375 C 63.386719 300.167969 64.398438 308.421875 64.398438 308.421875 Z M 64.398438 308.421875 " fill-opacity="1" fill-rule="evenodd"/><path fill="#e8dfd6" d="M 84.238281 304.441406 C 83.496094 304.441406 82.875 303.835938 82.867188 303.085938 L 78.050781 30.820312 C 78.035156 30.058594 78.644531 29.4375 79.398438 29.417969 C 79.398438 29.417969 79.417969 29.417969 79.425781 29.417969 C 80.171875 29.417969 80.792969 30.023438 80.800781 30.773438 L 85.613281 303.039062 C 85.632812 303.800781 85.019531 304.421875 84.265625 304.441406 C 84.265625 304.441406 84.25 304.441406 84.238281 304.441406 Z M 84.238281 304.441406 " fill-opacity="1" fill-rule="nonzero"/><g clip-path="url(#4b2cca6bb3)"><path fill="#e8dfd6" d="M 68.601562 33.355469 C 68.191406 33.355469 67.847656 33.035156 67.820312 32.617188 C 67.792969 32.183594 68.121094 31.8125 68.546875 31.785156 L 130.769531 27.574219 C 131.203125 27.550781 131.574219 27.875 131.601562 28.300781 C 131.628906 28.738281 131.300781 29.109375 130.875 29.136719 L 68.652344 33.347656 C 68.652344 33.347656 68.617188 33.347656 68.601562 33.347656 Z M 68.601562 33.355469 " fill-opacity="1" fill-rule="nonzero"/></g><path fill="#e8dfd6" d="M 124.171875 40.222656 C 119.847656 34.605469 102.53125 34.605469 98.195312 40.222656 C 93.867188 45.84375 93.867188 68.332031 98.195312 73.953125 C 102.523438 79.570312 119.835938 79.570312 124.171875 73.953125 C 128.5 68.332031 128.5 45.84375 124.171875 40.222656 Z M 124.171875 40.222656 " fill-opacity="0.549" fill-rule="evenodd"/><path fill="#be3d1d" d="M 121.769531 45.878906 C 120.308594 44.105469 117.976562 46.457031 114.933594 46.917969 C 112.417969 47.296875 111.699219 44.308594 106.796875 46.375 C 100.828125 48.882812 101.015625 45.011719 100.207031 45.996094 C 96.730469 50.214844 97.316406 67.019531 100.910156 71.230469 C 104.5 75.433594 118.292969 75.449219 121.769531 71.230469 C 125.246094 67.011719 125.246094 50.109375 121.769531 45.886719 Z M 121.769531 45.878906 " fill-opacity="1" fill-rule="evenodd"/><path fill="#be3d1d" d="M 110.777344 72.523438 L 112.628906 72.523438 L 112.628906 81.105469 L 110.777344 81.105469 Z M 110.777344 72.523438 " fill-opacity="1" fill-rule="nonzero"/><path fill="#855a4b" d="M 208.542969 89.648438 C 208.542969 89.648438 214.5625 112.546875 207.65625 119.554688 C 207.65625 119.554688 213.320312 120.460938 215.351562 117.953125 C 217.382812 115.445312 217.238281 112.660156 217.238281 112.660156 L 217.929688 117.925781 L 226.53125 116.234375 L 225.546875 91.03125 L 208.550781 89.648438 Z M 208.542969 89.648438 " fill-opacity="1" fill-rule="evenodd"/><path fill="#855a4b" d="M 206.8125 84.746094 C 206.8125 84.746094 201.636719 80.75 203.984375 71.636719 C 206.34375 62.527344 221.148438 56.207031 230.761719 59.785156 C 240.363281 63.367188 251.207031 84.542969 240.753906 96.644531 C 230.300781 108.742188 217.921875 102.289062 217.921875 102.289062 L 206.8125 84.738281 Z M 206.8125 84.746094 " fill-opacity="1" fill-rule="evenodd"/><path fill="#ffc2b7" d="M 212.335938 68.675781 C 212.335938 68.675781 203.550781 73.320312 207.683594 88.605469 C 211.804688 103.886719 213.984375 106.171875 222.460938 105.800781 C 230.9375 105.425781 235.195312 95.871094 236.203125 88.710938 C 237.222656 81.539062 223.757812 59.191406 212.335938 68.675781 Z M 212.335938 68.675781 " fill-opacity="1" fill-rule="evenodd"/><path fill="#7b581b" d="M 219.75 79.75 C 219.75 79.75 222.898438 77.433594 227.074219 78.480469 C 227.074219 78.480469 223.144531 76.175781 219.75 79.75 Z M 219.75 79.75 " fill-opacity="1" fill-rule="evenodd"/><path fill="#7b581b" d="M 206.316406 82.824219 C 206.316406 82.824219 208.011719 80.917969 210.6875 82.382812 C 210.6875 82.382812 208.027344 79.722656 206.316406 82.824219 Z M 206.316406 82.824219 " fill-opacity="1" fill-rule="evenodd"/><path fill="#e87290" d="M 213.761719 92.238281 C 213.824219 92.464844 213.828125 92.699219 213.773438 92.9375 C 213.71875 93.179688 213.613281 93.40625 213.449219 93.625 C 213.285156 93.84375 213.082031 94.03125 212.832031 94.195312 C 212.585938 94.355469 212.316406 94.476562 212.023438 94.558594 C 211.730469 94.640625 211.433594 94.675781 211.140625 94.664062 C 210.84375 94.652344 210.570312 94.59375 210.320312 94.492188 C 210.066406 94.390625 209.855469 94.25 209.6875 94.070312 C 209.515625 93.890625 209.398438 93.691406 209.335938 93.464844 C 209.273438 93.238281 209.269531 93.003906 209.324219 92.761719 C 209.378906 92.523438 209.488281 92.292969 209.648438 92.074219 C 209.8125 91.859375 210.019531 91.667969 210.265625 91.507812 C 210.511719 91.34375 210.78125 91.222656 211.074219 91.140625 C 211.371094 91.0625 211.664062 91.027344 211.957031 91.039062 C 212.253906 91.050781 212.527344 91.105469 212.777344 91.210938 C 213.03125 91.3125 213.242188 91.453125 213.414062 91.628906 C 213.582031 91.808594 213.699219 92.011719 213.761719 92.238281 Z M 213.761719 92.238281 " fill-opacity="0.502" fill-rule="nonzero"/><path fill="#e87290" d="M 230.378906 88.296875 C 230.441406 88.523438 230.40625 88.765625 230.269531 89.03125 C 230.136719 89.292969 229.914062 89.554688 229.605469 89.8125 C 229.292969 90.070312 228.917969 90.304688 228.476562 90.523438 C 228.039062 90.738281 227.566406 90.914062 227.066406 91.054688 C 226.5625 91.191406 226.070312 91.28125 225.582031 91.324219 C 225.09375 91.367188 224.648438 91.355469 224.25 91.292969 C 223.851562 91.230469 223.527344 91.121094 223.277344 90.964844 C 223.027344 90.808594 222.871094 90.617188 222.808594 90.390625 C 222.746094 90.164062 222.78125 89.921875 222.914062 89.660156 C 223.046875 89.394531 223.269531 89.136719 223.582031 88.878906 C 223.890625 88.617188 224.265625 88.382812 224.707031 88.167969 C 225.144531 87.953125 225.617188 87.773438 226.121094 87.636719 C 226.621094 87.496094 227.117188 87.40625 227.605469 87.363281 C 228.089844 87.324219 228.535156 87.332031 228.933594 87.394531 C 229.332031 87.457031 229.660156 87.566406 229.910156 87.722656 C 230.160156 87.878906 230.316406 88.070312 230.378906 88.296875 Z M 230.378906 88.296875 " fill-opacity="0.502" fill-rule="nonzero"/><path fill="#a31814" d="M 218.585938 97.964844 L 222.914062 96.414062 C 222.914062 96.414062 223.773438 98.238281 221.851562 99.347656 C 219.128906 100.933594 218.585938 97.964844 218.585938 97.964844 Z M 218.585938 97.964844 " fill-opacity="1" fill-rule="evenodd"/><path fill="#d95a43" d="M 214.820312 86.300781 C 214.820312 86.300781 214.339844 89.304688 215.464844 90.6875 C 216.582031 92.070312 216.148438 90.226562 216.015625 89.027344 C 215.882812 87.832031 215.34375 85.015625 214.828125 86.308594 Z M 214.820312 86.300781 " fill-opacity="1" fill-rule="evenodd"/><path fill="#f9b7ab" d="M 163.589844 236.949219 C 163.589844 236.949219 150.691406 273.152344 140.511719 285.382812 C 130.335938 297.605469 118.25 312.144531 118.25 312.144531 L 109.855469 309.324219 L 150.054688 232.457031 Z M 163.589844 236.949219 " fill-opacity="1" fill-rule="evenodd"/><path fill="#444259" d="M 208.171875 91.101562 C 208.171875 91.101562 213.570312 87.972656 214.996094 87.503906 C 216.851562 86.902344 230.804688 89.089844 230.804688 89.089844 C 230.804688 89.089844 226.957031 96.085938 233.882812 98.378906 C 233.882812 98.378906 228.808594 104.824219 222.375 105.730469 C 215.9375 106.632812 212.238281 105.621094 210.484375 101.039062 C 210.484375 101.039062 209.3125 98.503906 208.886719 96.714844 C 208.460938 94.933594 208.152344 93.035156 208.171875 91.09375 Z M 208.171875 91.101562 " fill-opacity="1" fill-rule="evenodd"/><path fill="#444259" d="M 229.246094 89.234375 C 229.246094 89.234375 233.15625 83.886719 235.097656 82.585938 C 235.097656 82.585938 235.300781 82.488281 235.804688 82.753906 C 235.804688 82.753906 235.167969 83.480469 234.175781 84.730469 C 233.234375 85.925781 231.976562 87.601562 230.679688 89.296875 C 228.84375 91.695312 230.058594 89.535156 229.253906 89.234375 Z M 229.246094 89.234375 " fill-opacity="1" fill-rule="evenodd"/><path fill="#444259" d="M 235.8125 90.640625 C 235.8125 90.640625 236.292969 97.832031 231.664062 99.894531 L 231.515625 99.433594 C 231.515625 99.433594 234.28125 98.292969 235.8125 90.640625 Z M 235.8125 90.640625 " fill-opacity="1" fill-rule="evenodd"/><path fill="#ffc2b8" d="M 234.175781 84.730469 C 234.175781 84.730469 236.125 80.792969 237.082031 83.800781 C 238.039062 86.804688 238.039062 89.914062 236.445312 90.449219 C 234.839844 90.988281 234.492188 89.480469 234.492188 89.480469 Z M 234.175781 84.730469 " fill-opacity="1" fill-rule="evenodd"/><path fill="#855a4b" d="M 232.851562 76.316406 C 232.851562 76.316406 230.617188 77.398438 227.78125 76.921875 C 224.9375 76.441406 222.382812 73.792969 222.382812 73.792969 C 222.382812 73.792969 223.296875 77.726562 220.6875 78.984375 C 218.082031 80.246094 216.007812 81.398438 214.410156 80.597656 C 212.808594 79.800781 211.441406 77.433594 211.441406 77.433594 C 211.441406 77.433594 211.804688 80.945312 210.769531 81.628906 C 209.738281 82.300781 205.148438 82 205.148438 82 L 205.777344 70.273438 C 205.777344 70.273438 215.316406 63.570312 216.40625 63.367188 C 217.507812 63.164062 219.980469 60.9375 222.355469 61.398438 C 224.730469 61.859375 228.675781 63.820312 230.058594 64.636719 C 231.445312 65.449219 232.863281 76.316406 232.863281 76.316406 Z M 232.851562 76.316406 " fill-opacity="1" fill-rule="evenodd"/><path fill="#ffc2b7" d="M 155.796875 168.414062 C 155.796875 168.414062 154.46875 164.152344 150.390625 165.410156 C 150.390625 165.410156 148.875 166.394531 149.148438 167.289062 C 149.148438 167.289062 147.101562 166.828125 145.453125 168.210938 C 143.800781 169.585938 144.371094 176.675781 145.824219 179.644531 C 145.824219 179.644531 146.3125 180.523438 149.664062 180.824219 C 151.011719 180.9375 154.035156 179.980469 155.59375 180.0625 C 156.84375 180.125 155.808594 168.421875 155.808594 168.421875 Z M 155.796875 168.414062 " fill-opacity="1" fill-rule="evenodd"/><g clip-path="url(#092319de96)"><g clip-path="url(#dcbd7185eb)"><path fill="#bb766c" d="M 149.707031 172.4375 C 146.726562 172.4375 145.183594 171.660156 144.394531 170.957031 C 143.421875 170.089844 143.367188 169.167969 143.359375 169.125 C 143.359375 169.078125 143.394531 169.035156 143.4375 169.035156 C 143.484375 169.035156 143.527344 169.070312 143.527344 169.113281 C 143.527344 169.113281 143.582031 170.011719 144.511719 170.835938 C 145.371094 171.597656 147.179688 172.457031 150.902344 172.226562 C 151.019531 171.949219 151.59375 170.472656 150.941406 169.390625 C 150.671875 169.453125 149.617188 169.644531 148.296875 169.203125 C 148.253906 169.183594 148.226562 169.140625 148.246094 169.097656 C 148.261719 169.050781 148.304688 169.027344 148.351562 169.042969 C 149.804688 169.523438 150.949219 169.210938 150.957031 169.210938 C 150.992188 169.203125 151.027344 169.210938 151.054688 169.246094 C 151.886719 170.523438 151.082031 172.269531 151.046875 172.339844 C 151.035156 172.367188 151 172.386719 150.976562 172.386719 C 150.53125 172.410156 150.105469 172.429688 149.714844 172.429688 Z M 149.707031 172.4375 " fill-opacity="1" fill-rule="nonzero"/></g></g><g clip-path="url(#2bec4b31e3)"><g clip-path="url(#40f65c4d13)"><path fill="#bb766c" d="M 152.882812 168.167969 C 149.484375 168.167969 148.742188 166.738281 148.714844 166.675781 C 148.695312 166.632812 148.714844 166.589844 148.75 166.5625 C 148.792969 166.542969 148.839844 166.5625 148.863281 166.597656 C 148.863281 166.613281 149.644531 168.078125 153.199219 167.988281 C 153.253906 167.988281 153.289062 168.023438 153.289062 168.070312 C 153.289062 168.113281 153.253906 168.15625 153.210938 168.15625 C 153.101562 168.15625 152.996094 168.15625 152.890625 168.15625 Z M 152.882812 168.167969 " fill-opacity="1" fill-rule="nonzero"/></g></g><g clip-path="url(#ac3fd0a715)"><g clip-path="url(#b46dee890b)"><path fill="#bb766c" d="M 149.511719 175.460938 C 144.273438 175.460938 142.375 172.960938 142.355469 172.933594 C 142.332031 172.898438 142.339844 172.847656 142.375 172.820312 C 142.410156 172.792969 142.464844 172.800781 142.488281 172.835938 C 142.507812 172.863281 144.699219 175.734375 150.914062 175.238281 C 151.027344 174.921875 151.585938 173.191406 150.964844 172.449219 C 150.941406 172.410156 150.941406 172.359375 150.976562 172.332031 C 151.011719 172.304688 151.0625 172.304688 151.089844 172.339844 C 151.835938 173.226562 151.082031 175.265625 151.046875 175.355469 C 151.035156 175.382812 151.011719 175.40625 150.976562 175.40625 C 150.460938 175.453125 149.964844 175.46875 149.503906 175.46875 Z M 149.511719 175.460938 " fill-opacity="1" fill-rule="nonzero"/></g></g><g clip-path="url(#9de275ac4d)"><g clip-path="url(#a647033dcd)"><path fill="#bb766c" d="M 149.34375 178.707031 C 146.035156 178.707031 144.414062 177.242188 144.394531 177.226562 C 144.359375 177.191406 144.359375 177.136719 144.394531 177.109375 C 144.433594 177.074219 144.484375 177.074219 144.511719 177.109375 C 144.53125 177.128906 146.488281 178.890625 150.503906 178.492188 C 150.574219 178.207031 150.859375 176.828125 150.222656 175.460938 C 150.203125 175.417969 150.222656 175.371094 150.265625 175.347656 C 150.308594 175.328125 150.355469 175.347656 150.382812 175.390625 C 151.125 176.96875 150.683594 178.527344 150.65625 178.589844 C 150.648438 178.625 150.621094 178.644531 150.585938 178.652344 C 150.152344 178.695312 149.734375 178.714844 149.34375 178.714844 Z M 149.34375 178.707031 " fill-opacity="1" fill-rule="nonzero"/></g></g><g clip-path="url(#958711939f)"><g clip-path="url(#50ab8d1a23)"><path fill="#bb766c" d="M 148.988281 181.453125 C 148.988281 181.453125 148.925781 181.433594 148.910156 181.410156 C 148.890625 181.363281 148.910156 181.320312 148.953125 181.292969 C 150.0625 180.769531 149.867188 178.667969 149.859375 178.652344 C 149.859375 178.609375 149.882812 178.5625 149.9375 178.5625 C 149.980469 178.5625 150.027344 178.589844 150.027344 178.644531 C 150.035156 178.730469 150.238281 180.878906 149.023438 181.453125 C 149.015625 181.453125 148.996094 181.453125 148.988281 181.453125 Z M 148.988281 181.453125 " fill-opacity="1" fill-rule="nonzero"/></g></g><path fill="#ffc2b7" d="M 158.503906 169.683594 C 159.789062 169.523438 187.761719 166.179688 195.207031 165.390625 C 198.3125 165.0625 200.742188 149.390625 200.742188 149.390625 L 216.496094 144.835938 L 217.035156 160.71875 C 217.035156 160.71875 215.519531 177.152344 206.378906 178.820312 C 196.066406 180.699219 155.382812 180.050781 155.382812 180.050781 C 155.089844 180.132812 155.621094 168.359375 155.621094 168.359375 C 155.621094 168.359375 156.488281 169.769531 158.503906 169.691406 Z M 158.503906 169.683594 " fill-opacity="1" fill-rule="evenodd"/><path fill="#faad5d" d="M 196.757812 191.894531 C 194.046875 190.414062 204.199219 183.605469 208.390625 172.351562 C 211.929688 162.855469 213.925781 151.492188 213.925781 151.492188 C 208.339844 152.824219 196.75 148.445312 196.75 148.445312 C 196.75 148.445312 200.605469 128.234375 204.648438 122.675781 C 208.179688 117.820312 221 115.070312 221 115.070312 C 221 115.070312 228.6875 111.660156 238.21875 114.363281 C 247.179688 116.90625 259.335938 124.34375 259.335938 124.34375 C 265.390625 130.8125 265.472656 161.109375 265.472656 161.109375 C 265.035156 161.394531 257.917969 163.53125 250.019531 161.109375 L 254.636719 193.613281 C 236.613281 203.382812 205.128906 196.449219 196.757812 191.894531 Z M 196.757812 191.894531 " fill-opacity="1" fill-rule="evenodd"/><path fill="#ffc2b7" d="M 173.984375 246.480469 C 173.984375 246.480469 166.597656 286.605469 158.003906 301.144531 C 149.414062 315.679688 139.210938 332.964844 139.210938 332.964844 L 129.925781 331.441406 L 159.023438 244.058594 Z M 173.984375 246.480469 " fill-opacity="1" fill-rule="evenodd"/><path fill="#8b9da3" d="M 157.402344 246.105469 C 158.128906 245.035156 159.140625 243.582031 158.769531 243.582031 C 156.402344 243.582031 147.855469 234.601562 147.855469 234.601562 C 147.746094 234.601562 154.699219 216.121094 170.417969 206.769531 C 178.46875 201.980469 196.855469 191.042969 196.855469 191.042969 C 204.917969 189.902344 213.535156 191.566406 224.136719 191.894531 C 239.972656 192.390625 254.636719 193.550781 254.636719 193.550781 C 254.636719 193.550781 257.128906 209.4375 250.097656 213.902344 C 238.039062 221.5625 196.28125 230.160156 196.28125 230.160156 C 196.28125 230.160156 184.417969 244.847656 177.429688 251.59375 C 171.101562 257.710938 159.308594 251.539062 157.386719 246.097656 Z M 157.402344 246.105469 " fill-opacity="1" fill-rule="evenodd"/><g clip-path="url(#5ddec04373)"><g clip-path="url(#9a7790bd6c)"><path fill="#473f3e" d="M 158.09375 244.769531 C 158.09375 244.769531 158.078125 244.769531 158.078125 244.769531 C 158.058594 244.757812 158.050781 244.734375 158.066406 244.714844 C 167.660156 230.265625 175.464844 222.101562 180.320312 217.796875 C 185.589844 213.125 188.628906 211.867188 188.65625 211.847656 L 212.433594 200.632812 C 212.433594 200.632812 212.480469 200.632812 212.488281 200.652344 C 212.496094 200.671875 212.488281 200.695312 212.46875 200.707031 L 188.683594 211.925781 C 188.683594 211.925781 185.625 213.203125 180.367188 217.867188 C 175.515625 222.164062 167.714844 230.328125 158.140625 244.769531 C 158.140625 244.777344 158.121094 244.785156 158.101562 244.785156 Z M 158.09375 244.769531 " fill-opacity="1" fill-rule="nonzero"/></g></g><path fill="#b5c197" d="M 252.011719 242.410156 L 242.515625 199.863281 L 200.875 198.933594 C 200.875 198.933594 194.207031 197.90625 189.933594 192.242188 C 189.933594 192.242188 189.933594 186.894531 191.5625 186.347656 L 255.640625 188.039062 L 258.484375 232.5 C 258.484375 232.5 264.789062 245.414062 252.003906 242.417969 Z M 252.011719 242.410156 " fill-opacity="1" fill-rule="evenodd"/><g clip-path="url(#b2715f0120)"><g clip-path="url(#5a40639978)"><path fill="#e8dfd6" d="M 191.519531 186.503906 C 191.519531 186.503906 193.878906 192.082031 201.820312 194.121094 L 245.425781 195.742188 L 255.035156 239.183594 C 255.035156 239.183594 261.171875 241.621094 259.964844 232.792969 C 258.761719 223.964844 257.464844 186.273438 257.464844 186.273438 C 257.464844 186.273438 204.089844 174.476562 191.511719 186.503906 Z M 191.519531 186.503906 " fill-opacity="1" fill-rule="evenodd"/></g></g><path fill="#ffc2b7" d="M 202.210938 180.007812 C 202.671875 180.378906 203.425781 180.789062 204.527344 180.742188 C 205.8125 180.585938 237.507812 178.804688 244.957031 178.003906 C 248.058594 177.675781 247.890625 160.3125 247.890625 160.222656 C 247.890625 160.222656 259.929688 162.6875 263.433594 161.632812 C 263.664062 167.839844 263.183594 189.015625 255.125 190.484375 C 252.980469 190.875 249.386719 191.132812 245.0625 191.285156 L 244.636719 191.300781 C 228.144531 191.886719 201.40625 191.105469 201.40625 191.105469 C 199.792969 191.105469 196.972656 191.992188 195.675781 191.878906 C 192.328125 191.574219 191.839844 190.699219 191.839844 190.699219 C 190.382812 187.730469 189.816406 180.636719 191.464844 179.265625 C 193.117188 177.890625 195.164062 178.34375 195.164062 178.34375 C 194.898438 177.445312 196.40625 176.460938 196.40625 176.460938 C 200.492188 175.203125 201.8125 179.46875 201.8125 179.46875 C 201.8125 179.46875 201.8125 179.539062 201.832031 179.671875 C 201.882812 179.714844 201.945312 179.769531 202.015625 179.847656 L 202.195312 180 Z M 202.210938 180.007812 " fill-opacity="1" fill-rule="evenodd"/><g clip-path="url(#a549b5d3af)"><g clip-path="url(#f951f05b20)"><path fill="#bb766c" d="M 197.140625 178.464844 C 195.589844 178.464844 194.746094 177.757812 194.703125 177.710938 C 194.667969 177.6875 194.667969 177.632812 194.703125 177.597656 C 194.730469 177.5625 194.78125 177.5625 194.816406 177.597656 C 194.828125 177.605469 196.101562 178.6875 198.390625 178.15625 C 198.433594 178.148438 198.480469 178.171875 198.488281 178.21875 C 198.496094 178.261719 198.46875 178.304688 198.425781 178.316406 C 197.957031 178.421875 197.53125 178.464844 197.140625 178.464844 Z M 197.140625 178.464844 " fill-opacity="1" fill-rule="nonzero"/></g></g><g clip-path="url(#930bb1fa07)"><g clip-path="url(#d256e1a742)"><path fill="#bb766c" d="M 194.613281 181.738281 C 191.980469 181.738281 190.660156 180.488281 190.605469 180.433594 C 190.570312 180.398438 190.570312 180.34375 190.605469 180.320312 C 190.640625 180.28125 190.695312 180.28125 190.722656 180.320312 C 190.738281 180.328125 192.121094 181.628906 194.800781 181.570312 C 194.84375 181.570312 194.886719 181.605469 194.886719 181.648438 C 194.886719 181.691406 194.851562 181.738281 194.808594 181.738281 C 194.746094 181.738281 194.675781 181.738281 194.613281 181.738281 Z M 194.613281 181.738281 " fill-opacity="1" fill-rule="nonzero"/></g></g><g clip-path="url(#b9556d4c77)"><g clip-path="url(#b5bdef2a44)"><path fill="#bb766c" d="M 194.039062 185.398438 C 191.085938 185.132812 189.355469 183.996094 189.339844 183.980469 C 189.304688 183.953125 189.285156 183.898438 189.3125 183.863281 C 189.339844 183.828125 189.390625 183.820312 189.425781 183.835938 C 189.445312 183.847656 191.136719 184.964844 194.046875 185.230469 C 194.089844 185.230469 194.125 185.273438 194.125 185.316406 C 194.125 185.363281 194.082031 185.398438 194.046875 185.398438 Z M 194.039062 185.398438 " fill-opacity="1" fill-rule="nonzero"/></g></g><g clip-path="url(#f389979f2a)"><g clip-path="url(#f07150d2c9)"><path fill="#bb766c" d="M 194.1875 188.933594 C 192.140625 188.898438 189.585938 187.703125 189.558594 187.695312 C 189.515625 187.675781 189.5 187.621094 189.515625 187.578125 C 189.535156 187.535156 189.585938 187.515625 189.632812 187.535156 C 189.65625 187.542969 192.175781 188.730469 194.1875 188.757812 C 194.234375 188.757812 194.269531 188.792969 194.269531 188.84375 C 194.269531 188.890625 194.234375 188.925781 194.179688 188.925781 Z M 194.1875 188.933594 " fill-opacity="1" fill-rule="nonzero"/></g></g><path fill="#ffc2b8" d="M 230.617188 99.84375 L 233.03125 112.554688 C 233.03125 112.554688 227.863281 121.207031 223.472656 121.472656 C 219.074219 121.746094 220.707031 115.160156 220.707031 115.160156 L 219.316406 103.957031 L 230.617188 99.824219 Z M 230.617188 99.84375 " fill-opacity="1" fill-rule="evenodd"/><path fill="#ffad9e" d="M 230.929688 101.394531 L 231.886719 106.613281 L 219.8125 108.386719 L 219.449219 105.808594 C 219.449219 105.808594 221.585938 106.722656 230.929688 101.394531 Z M 230.929688 101.394531 " fill-opacity="1" fill-rule="evenodd"/><path fill="#855a4b" d="M 223.960938 83.125 C 224.394531 83.089844 224.804688 83.675781 224.875 84.4375 C 224.945312 85.199219 224.644531 85.847656 224.207031 85.882812 C 223.773438 85.917969 223.367188 85.332031 223.296875 84.570312 C 223.222656 83.808594 223.527344 83.160156 223.960938 83.125 Z M 223.960938 83.125 " fill-opacity="1" fill-rule="evenodd"/><path fill="#855a4b" d="M 210.136719 85.472656 C 210.574219 85.402344 211.015625 85.960938 211.132812 86.714844 C 211.246094 87.46875 211 88.132812 210.5625 88.203125 C 210.128906 88.277344 209.6875 87.71875 209.570312 86.964844 C 209.457031 86.210938 209.703125 85.546875 210.136719 85.472656 Z M 210.136719 85.472656 " fill-opacity="1" fill-rule="evenodd"/><path fill="#444259" d="M 208.171875 91.101562 C 208.171875 91.101562 213.570312 87.972656 214.996094 87.503906 C 216.851562 86.902344 230.804688 89.089844 230.804688 89.089844 C 230.804688 89.089844 226.957031 96.085938 233.882812 98.378906 C 233.882812 98.378906 228.808594 104.824219 222.375 105.730469 C 215.9375 106.632812 212.238281 105.621094 210.484375 101.039062 C 210.484375 101.039062 209.3125 98.503906 208.886719 96.714844 C 208.460938 94.933594 208.152344 93.035156 208.171875 91.09375 Z M 208.171875 91.101562 " fill-opacity="1" fill-rule="evenodd"/><path fill="#444259" d="M 229.246094 89.234375 C 229.246094 89.234375 233.15625 83.886719 235.097656 82.585938 C 235.097656 82.585938 235.300781 82.488281 235.804688 82.753906 C 235.804688 82.753906 235.167969 83.480469 234.175781 84.730469 C 233.234375 85.925781 231.976562 87.601562 230.679688 89.296875 C 228.84375 91.695312 230.058594 89.535156 229.253906 89.234375 Z M 229.246094 89.234375 " fill-opacity="1" fill-rule="evenodd"/><path fill="#444259" d="M 235.8125 90.640625 C 235.8125 90.640625 236.292969 97.832031 231.664062 99.894531 L 231.515625 99.433594 C 231.515625 99.433594 234.28125 98.292969 235.8125 90.640625 Z M 235.8125 90.640625 " fill-opacity="1" fill-rule="evenodd"/><path fill="#855a4b" d="M 244.734375 80.828125 C 244.734375 80.828125 252.625 107.855469 246.011719 112.960938 C 239.386719 118.066406 230.308594 119.40625 228.835938 118.980469 C 228.835938 118.980469 233.402344 109.34375 231.382812 101.632812 C 231.382812 101.632812 235.582031 99.445312 237.683594 94.375 C 239.785156 89.3125 244.726562 80.820312 244.726562 80.820312 Z M 244.734375 80.828125 " fill-opacity="1" fill-rule="evenodd"/><path fill="#b6571c" d="M 247.933594 160.269531 C 247.933594 160.269531 247.933594 160.269531 247.925781 160.269531 C 247.898438 160.269531 244.972656 159.382812 243.191406 157.699219 C 243.183594 157.699219 243.171875 157.679688 243.183594 157.664062 L 245.335938 142.46875 C 245.335938 142.46875 245.363281 142.433594 245.382812 142.433594 C 245.398438 142.433594 245.417969 142.460938 245.417969 142.480469 L 243.269531 157.644531 C 245.035156 159.300781 247.925781 160.171875 247.960938 160.179688 C 247.980469 160.179688 247.996094 160.207031 247.988281 160.222656 C 247.988281 160.242188 247.96875 160.25 247.953125 160.25 Z M 247.933594 160.269531 " fill-opacity="1" fill-rule="nonzero"/><path fill="#be3d1d" d="M 130.457031 329.960938 C 130.457031 329.960938 121.246094 341.605469 116.15625 343.121094 C 111.058594 344.648438 122.363281 347.402344 126.238281 345.347656 C 130.113281 343.289062 134.707031 338.070312 134.707031 338.070312 L 133.011719 345.277344 L 135.742188 345.257812 L 139.867188 332.121094 C 139.867188 332.121094 132.277344 332.980469 130.449219 329.960938 Z M 130.457031 329.960938 " fill-opacity="1" fill-rule="evenodd"/><path fill="#be3d1d" d="M 110.5625 308.03125 C 110.5625 308.03125 100.253906 317.46875 95.289062 318.117188 C 90.320312 318.765625 100.410156 323.027344 104.320312 321.699219 C 108.230469 320.367188 113.292969 316.210938 113.292969 316.210938 L 110.632812 322.65625 L 113.179688 323.046875 L 118.996094 311.453125 C 118.996094 311.453125 111.8125 311.113281 110.574219 308.03125 Z M 110.5625 308.03125 " fill-opacity="1" fill-rule="evenodd"/><path fill="#be3d1d" d="M 113.117188 81.050781 C 113.117188 80.890625 113.054688 80.75 112.949219 80.636719 C 112.84375 80.527344 112.691406 80.464844 112.53125 80.464844 L 110.765625 80.464844 C 110.4375 80.464844 110.171875 80.730469 110.171875 81.058594 C 110.171875 81.21875 110.234375 81.371094 110.339844 81.476562 C 110.449219 81.582031 110.597656 81.644531 110.757812 81.644531 L 112.523438 81.644531 C 112.851562 81.644531 113.117188 81.378906 113.117188 81.050781 Z M 113.117188 81.050781 " fill-opacity="1" fill-rule="evenodd"/><path fill="#be3d1d" d="M 133.980469 185.132812 C 132.152344 185.132812 130.148438 184.953125 127.933594 184.539062 C 119.410156 182.953125 113.976562 165.046875 111.769531 131.308594 C 110.136719 106.402344 110.9375 81.628906 110.945312 81.378906 C 110.953125 81.015625 111.265625 80.722656 111.628906 80.742188 C 111.992188 80.75 112.285156 81.058594 112.265625 81.421875 C 112.265625 81.671875 111.46875 106.394531 113.089844 131.238281 C 115.226562 163.824219 120.441406 181.808594 128.171875 183.242188 C 137.773438 185.035156 143.191406 182.222656 148.421875 179.511719 C 152.660156 177.3125 157.046875 175.042969 163.414062 175.480469 C 163.777344 175.503906 164.050781 175.824219 164.035156 176.1875 C 164.007812 176.550781 163.6875 176.828125 163.324219 176.808594 C 157.324219 176.402344 153.296875 178.484375 149.035156 180.699219 C 144.796875 182.898438 140.441406 185.148438 133.96875 185.148438 Z M 133.980469 185.132812 " fill-opacity="1" fill-rule="nonzero"/><path fill="#ffffff" d="M 159.769531 173.972656 C 160.542969 173.617188 162.101562 173.722656 162.101562 173.722656 C 162.785156 176.285156 162.386719 179.15625 162.386719 179.15625 C 161.757812 179.566406 159.769531 179.15625 159.769531 179.15625 C 160.96875 177.960938 159.769531 173.980469 159.769531 173.980469 Z M 159.769531 173.972656 " fill-opacity="0.5686" fill-rule="evenodd"/><path fill="#ffffff" d="M 156.765625 174.21875 C 157.535156 173.867188 159.097656 173.972656 159.097656 173.972656 C 159.777344 176.535156 159.378906 179.40625 159.378906 179.40625 C 158.75 179.8125 156.765625 179.40625 156.765625 179.40625 C 157.960938 178.210938 156.765625 174.230469 156.765625 174.230469 Z M 156.765625 174.21875 " fill-opacity="0.5686" fill-rule="evenodd"/><path fill="#855a4b" d="M 226.929688 60.78125 C 226.929688 60.78125 224.757812 58.5 226.929688 56.550781 C 229.101562 54.601562 228.800781 51.242188 232.382812 51.667969 C 235.964844 52.09375 238.15625 50.445312 238.875 54.601562 C 239.589844 58.757812 242.710938 57.324219 241.152344 60.769531 C 239.589844 64.226562 242.507812 66.816406 238.875 67.730469 C 235.238281 68.640625 226.929688 65 226.929688 60.769531 Z M 226.929688 60.78125 " fill-opacity="1" fill-rule="evenodd"/><path fill="#e8dfd6" d="M 109.375 30.464844 L 113.117188 30.464844 L 113.117188 37.203125 L 109.375 37.203125 Z M 109.375 30.464844 " fill-opacity="0.549" fill-rule="nonzero"/></svg>