<svg xmlns="http://www.w3.org/2000/svg" xmlns:xlink="http://www.w3.org/1999/xlink" width="500" zoomAndPan="magnify" viewBox="0 0 375 374.999991" height="500" preserveAspectRatio="xMidYMid meet" version="1.0"><defs><clipPath id="3ca17e333b"><path d="M 64.171875 321.660156 L 302.898438 321.660156 L 302.898438 336.183594 L 64.171875 336.183594 Z M 64.171875 321.660156 " clip-rule="nonzero"/></clipPath><clipPath id="6523e7dfb7"><path d="M 264 317.144531 L 277.644531 317.144531 L 277.644531 336.183594 L 264 336.183594 Z M 264 317.144531 " clip-rule="nonzero"/></clipPath><clipPath id="a6c199b7fc"><path d="M 256.507812 317.144531 L 271.664062 317.144531 L 271.664062 336.183594 L 256.507812 336.183594 Z M 256.507812 317.144531 " clip-rule="nonzero"/></clipPath><clipPath id="ec6695740d"><path d="M 156.285156 317.144531 L 169.976562 317.144531 L 169.976562 336.183594 L 156.285156 336.183594 Z M 156.285156 317.144531 " clip-rule="nonzero"/></clipPath><clipPath id="744f8624fa"><path d="M 148.84375 317.144531 L 163.996094 317.144531 L 163.996094 336.183594 L 148.84375 336.183594 Z M 148.84375 317.144531 " clip-rule="nonzero"/></clipPath><clipPath id="b4c66cba14"><path d="M 197.09375 317.144531 L 210.785156 317.144531 L 210.785156 336.183594 L 197.09375 336.183594 Z M 197.09375 317.144531 " clip-rule="nonzero"/></clipPath><clipPath id="dc59eabe6d"><path d="M 189.648438 317.144531 L 204.804688 317.144531 L 204.804688 336.183594 L 189.648438 336.183594 Z M 189.648438 317.144531 " clip-rule="nonzero"/></clipPath><clipPath id="351c7ce007"><path d="M 89.425781 317.144531 L 103.117188 317.144531 L 103.117188 336.183594 L 89.425781 336.183594 Z M 89.425781 317.144531 " clip-rule="nonzero"/></clipPath><clipPath id="237a609aa3"><path d="M 82 317.144531 L 97.136719 317.144531 L 97.136719 336.183594 L 82 336.183594 Z M 82 317.144531 " clip-rule="nonzero"/></clipPath><clipPath id="31f1e08742"><path d="M 281.234375 287.417969 L 310.890625 287.417969 L 310.890625 315.554688 L 281.234375 315.554688 Z M 281.234375 287.417969 " clip-rule="nonzero"/></clipPath><clipPath id="f120ed586e"><path d="M 98 38.441406 L 161 38.441406 L 161 48 L 98 48 Z M 98 38.441406 " clip-rule="nonzero"/></clipPath></defs><path fill="#94d9d4" d="M 132.5625 286.464844 L 127.300781 286.464844 L 127.300781 40.535156 L 132.5625 40.535156 L 132.5625 286.464844 " fill-opacity="1" fill-rule="nonzero"/><path fill="#a9adc2" d="M 265.597656 204.621094 L 264.457031 207.070312 C 262.101562 212.121094 257.027344 215.347656 251.449219 215.347656 L 188.941406 215.347656 C 182.503906 215.347656 176.855469 211.066406 175.125 204.875 L 175.050781 204.621094 L 265.597656 204.621094 " fill-opacity="1" fill-rule="nonzero"/><path fill="#4569a9" d="M 265.597656 204.621094 L 175.050781 204.621094 C 174.25 200.746094 177.214844 197.113281 181.179688 197.113281 L 259.90625 197.113281 C 263.828125 197.113281 266.664062 200.855469 265.597656 204.621094 " fill-opacity="1" fill-rule="nonzero"/><path fill="#d9ecf6" d="M 207.855469 149.691406 L 214.855469 172.117188 C 215.851562 175.3125 218.34375 177.824219 221.535156 178.847656 L 237.488281 183.980469 L 242.960938 198.003906 L 204.617188 198.003906 L 186.582031 152.535156 L 200.234375 146.292969 C 203.28125 144.902344 206.859375 146.496094 207.855469 149.691406 " fill-opacity="1" fill-rule="nonzero"/><path fill="#f89a82" d="M 232.765625 184.023438 L 237.488281 183.960938 L 237.488281 183.980469 C 243.503906 184.1875 248.09375 188.449219 249.546875 191.632812 L 250.730469 194.222656 C 251.808594 196.585938 250.945312 199.164062 248.800781 199.976562 L 243.445312 202.007812 C 240.441406 203.148438 236.777344 201.382812 235.265625 198.066406 L 235.074219 197.648438 C 234.371094 196.105469 233.640625 195.335938 232.621094 195.101562 C 228.746094 194.882812 227.28125 184.105469 232.765625 184.023438 " fill-opacity="1" fill-rule="nonzero"/><g clip-path="url(#3ca17e333b)"><path fill="#d9ecf6" d="M 72.707031 321.761719 L 285.816406 321.761719 C 290.683594 321.761719 295.300781 323.917969 298.421875 327.640625 L 302.269531 332.230469 C 303.585938 333.796875 302.46875 336.183594 300.417969 336.183594 L 70.078125 336.183594 C 66.816406 336.183594 64.171875 333.546875 64.171875 330.289062 C 64.171875 325.582031 67.992188 321.761719 72.707031 321.761719 " fill-opacity="1" fill-rule="nonzero"/></g><path fill="#a9adc2" d="M 140.320312 272.285156 C 135.257812 272.71875 130.582031 269.460938 129.253906 264.542969 L 99.460938 153.972656 C 98.136719 149.054688 100.242188 143.648438 104.824219 141.417969 C 110.980469 138.414062 117.992188 141.832031 119.679688 148.097656 L 147.292969 250.585938 L 140.320312 272.285156 " fill-opacity="1" fill-rule="nonzero"/><path fill="#223554" d="M 270.085938 323.519531 L 89.53125 323.519531 L 89.53125 317.265625 L 270.085938 307.78125 L 270.085938 323.519531 " fill-opacity="1" fill-rule="nonzero"/><path fill="#4569a9" d="M 210.410156 261.265625 L 217.382812 239.566406 L 189.765625 137.078125 C 188.519531 132.4375 184.339844 129.40625 179.761719 129.339844 L 179.75 129.292969 L 116.292969 129.292969 L 148.960938 250.816406 L 210.410156 261.265625 " fill-opacity="1" fill-rule="nonzero"/><path fill="#223554" d="M 176.339844 304.792969 L 160.347656 309.019531 C 158.003906 309.640625 156.371094 311.757812 156.371094 314.179688 L 156.371094 317.265625 L 177.023438 317.265625 L 176.339844 304.792969 " fill-opacity="1" fill-rule="nonzero"/><path fill="#223554" d="M 175.597656 317.265625 L 280.570312 317.265625 C 283.648438 317.265625 286.136719 314.777344 286.136719 311.703125 L 286.136719 242.59375 L 178.421875 251.871094 C 167.335938 252.828125 159.902344 263.675781 163.027344 274.335938 L 175.597656 317.265625 " fill-opacity="1" fill-rule="nonzero"/><g clip-path="url(#6523e7dfb7)"><path fill="#223554" d="M 270.085938 317.265625 L 264.058594 317.265625 L 264.058594 336.183594 L 270.085938 336.183594 C 274.226562 336.183594 277.582031 331.949219 277.582031 326.726562 C 277.582031 321.5 274.226562 317.265625 270.085938 317.265625 " fill-opacity="1" fill-rule="nonzero"/></g><g clip-path="url(#a6c199b7fc)"><path fill="#223554" d="M 271.554688 326.726562 C 271.554688 331.949219 268.195312 336.183594 264.058594 336.183594 C 259.917969 336.183594 256.5625 331.949219 256.5625 326.726562 C 256.5625 321.5 259.917969 317.265625 264.058594 317.265625 C 268.195312 317.265625 271.554688 321.5 271.554688 326.726562 " fill-opacity="1" fill-rule="nonzero"/></g><g clip-path="url(#ec6695740d)"><path fill="#223554" d="M 162.398438 317.265625 L 156.371094 317.265625 L 156.371094 336.183594 L 162.398438 336.183594 C 166.539062 336.183594 169.894531 331.949219 169.894531 326.726562 C 169.894531 321.5 166.539062 317.265625 162.398438 317.265625 " fill-opacity="1" fill-rule="nonzero"/></g><g clip-path="url(#744f8624fa)"><path fill="#223554" d="M 163.867188 326.726562 C 163.867188 331.949219 160.511719 336.183594 156.371094 336.183594 C 152.230469 336.183594 148.875 331.949219 148.875 326.726562 C 148.875 321.5 152.230469 317.265625 156.371094 317.265625 C 160.511719 317.265625 163.867188 321.5 163.867188 326.726562 " fill-opacity="1" fill-rule="nonzero"/></g><path fill="#4569a9" d="M 109.5 304.792969 L 93.507812 309.019531 C 91.164062 309.640625 89.53125 311.757812 89.53125 314.179688 L 89.53125 317.265625 L 110.183594 317.265625 L 109.5 304.792969 " fill-opacity="1" fill-rule="nonzero"/><path fill="#a9adc2" d="M 108.757812 317.265625 L 213.730469 317.265625 C 216.808594 317.265625 219.300781 314.777344 219.300781 311.703125 L 219.300781 242.59375 L 111.582031 251.871094 C 100.496094 252.828125 93.0625 263.671875 96.1875 274.335938 L 108.757812 317.265625 " fill-opacity="1" fill-rule="nonzero"/><path fill="#223554" d="M 159.125 299.269531 C 162.519531 299.269531 165.273438 302.019531 165.273438 305.410156 L 165.273438 320.972656 L 152.976562 320.972656 L 152.976562 305.410156 C 152.976562 302.019531 155.726562 299.269531 159.125 299.269531 " fill-opacity="1" fill-rule="nonzero"/><g clip-path="url(#b4c66cba14)"><path fill="#334668" d="M 203.246094 317.265625 L 197.21875 317.265625 L 197.21875 336.183594 L 203.246094 336.183594 C 207.386719 336.183594 210.742188 331.949219 210.742188 326.726562 C 210.742188 321.5 207.386719 317.265625 203.246094 317.265625 " fill-opacity="1" fill-rule="nonzero"/></g><g clip-path="url(#dc59eabe6d)"><path fill="#a9adc2" d="M 204.710938 326.726562 C 204.710938 331.949219 201.355469 336.183594 197.21875 336.183594 C 193.078125 336.183594 189.722656 331.949219 189.722656 326.726562 C 189.722656 321.5 193.078125 317.265625 197.21875 317.265625 C 201.355469 317.265625 204.710938 321.5 204.710938 326.726562 " fill-opacity="1" fill-rule="nonzero"/></g><g clip-path="url(#351c7ce007)"><path fill="#334668" d="M 95.558594 317.265625 L 89.53125 317.265625 L 89.53125 336.183594 L 95.558594 336.183594 C 99.699219 336.183594 103.054688 331.949219 103.054688 326.726562 C 103.054688 321.5 99.699219 317.265625 95.558594 317.265625 " fill-opacity="1" fill-rule="nonzero"/></g><g clip-path="url(#237a609aa3)"><path fill="#a9adc2" d="M 97.027344 326.726562 C 97.027344 331.949219 93.667969 336.183594 89.53125 336.183594 C 85.390625 336.183594 82.035156 331.949219 82.035156 326.726562 C 82.035156 321.5 85.390625 317.265625 89.53125 317.265625 C 93.667969 317.265625 97.027344 321.5 97.027344 326.726562 " fill-opacity="1" fill-rule="nonzero"/></g><path fill="#4569a9" d="M 305.621094 287.953125 L 296.542969 255.28125 C 293.261719 243.472656 282.492188 235.296875 270.21875 235.296875 L 206.085938 235.296875 L 233.410156 301.847656 L 295.042969 301.847656 C 302.304688 301.847656 307.5625 294.9375 305.621094 287.953125 " fill-opacity="1" fill-rule="nonzero"/><path fill="#334668" d="M 242.667969 288.570312 C 244.222656 294.164062 240.941406 299.957031 235.339844 301.507812 C 229.738281 303.0625 223.941406 299.785156 222.382812 294.191406 L 214.777344 266.816406 C 212.988281 260.382812 206.859375 256.132812 200.195312 256.707031 L 147.285156 261.265625 C 142.21875 261.699219 137.542969 258.441406 136.214844 253.523438 L 106.425781 142.949219 C 105.101562 138.035156 107.203125 132.628906 111.785156 130.394531 C 117.941406 127.394531 124.953125 130.8125 126.640625 137.078125 L 154.253906 239.566406 L 202.757812 235.390625 C 216.984375 234.164062 230.070312 243.238281 233.886719 256.980469 L 242.667969 288.570312 " fill-opacity="1" fill-rule="nonzero"/><path fill="#94d9d4" d="M 197.832031 256.957031 L 95.878906 265.738281 C 95.339844 268.261719 95.351562 270.945312 96.023438 273.632812 L 198.511719 264.808594 C 200.808594 264.609375 202.449219 262.496094 202.0625 260.226562 C 201.71875 258.203125 199.878906 256.78125 197.832031 256.957031 " fill-opacity="1" fill-rule="nonzero"/><path fill="#d9ecf6" d="M 156.371094 311.726562 C 145.539062 311.726562 136.726562 302.929688 136.726562 292.113281 L 136.726562 226.03125 C 136.726562 223.851562 138.496094 222.085938 140.675781 222.085938 C 142.855469 222.085938 144.621094 223.851562 144.621094 226.03125 L 144.621094 292.113281 C 144.621094 298.578125 149.890625 303.839844 156.371094 303.839844 C 158.550781 303.839844 160.316406 305.605469 160.316406 307.78125 C 160.316406 309.957031 158.550781 311.726562 156.371094 311.726562 " fill-opacity="1" fill-rule="nonzero"/><path fill="#a9adc2" d="M 144.621094 226.03125 L 136.726562 226.03125 L 136.726562 202.335938 L 144.621094 202.335938 L 144.621094 226.03125 " fill-opacity="1" fill-rule="nonzero"/><path fill="#a9adc2" d="M 272.292969 213.074219 L 271.105469 215.621094 C 268.648438 220.886719 263.363281 224.25 257.546875 224.25 L 192.398438 224.25 C 185.6875 224.25 179.800781 219.789062 177.996094 213.335938 L 177.921875 213.074219 L 272.292969 213.074219 " fill-opacity="1" fill-rule="nonzero"/><path fill="#86a7e0" d="M 272.292969 213.074219 L 177.921875 213.074219 C 177.085938 209.035156 180.175781 205.246094 184.308594 205.246094 L 266.363281 205.246094 C 270.449219 205.246094 273.40625 209.144531 272.292969 213.074219 " fill-opacity="1" fill-rule="nonzero"/><path fill="#9d5151" d="M 216.398438 206.527344 L 217.929688 212.503906 C 218.820312 216.039062 216.605469 218.839844 212.914062 218.839844 L 167.753906 218.839844 C 163.816406 218.839844 159.761719 215.667969 158.878906 211.898438 L 146.003906 156.972656 C 144.03125 148.5625 148.1875 141.464844 156.203125 139.570312 L 177.691406 134.492188 L 195.644531 138.902344 C 202.761719 140.628906 208.488281 147.28125 208.253906 153.550781 C 206.808594 155.8125 206.3125 158.546875 206.863281 161.167969 L 216.398438 206.527344 " fill-opacity="1" fill-rule="nonzero"/><path fill="#f89a82" d="M 180.289062 148.664062 L 163.367188 138.039062 C 168.089844 131.042969 163.566406 117.894531 162.378906 109.375 L 173.796875 106.496094 L 174.785156 106.640625 C 180.960938 107.542969 186.109375 113.101562 186.339844 119.125 L 185.898438 136.566406 L 185.507812 145.925781 C 185.398438 148.535156 182.503906 150.054688 180.289062 148.664062 " fill-opacity="1" fill-rule="nonzero"/><path fill="#86a7e0" d="M 233.035156 223.199219 C 223.699219 219.789062 225.554688 206.089844 235.460938 205.277344 L 271.21875 202.335938 C 279.472656 201.015625 287.238281 206.625 288.5625 214.867188 L 289.617188 221.433594 L 266.132812 235.285156 L 233.035156 223.199219 " fill-opacity="1" fill-rule="nonzero"/><path fill="#d9ecf6" d="M 267.066406 228.277344 L 286.089844 297.253906 L 298.328125 292.304688 L 285.792969 211.570312 C 276.417969 205.429688 263.804688 213.828125 267.066406 228.277344 " fill-opacity="1" fill-rule="nonzero"/><path fill="#d9ecf6" d="M 261.167969 301.914062 L 272.390625 297.414062 L 257.796875 218.34375 L 234.101562 224.96875 C 239.773438 249.066406 248.976562 274.800781 261.167969 301.914062 " fill-opacity="1" fill-rule="nonzero"/><path fill="#94d9d4" d="M 241.226562 202.335938 C 249.480469 201.015625 257.246094 206.625 258.570312 214.867188 L 259.625 221.433594 L 236.140625 235.285156 L 200.179688 235.285156 C 186.472656 235.542969 174.15625 230.257812 167.710938 220.167969 C 164.46875 215.09375 167.777344 208.375 173.789062 207.882812 L 241.226562 202.335938 " fill-opacity="1" fill-rule="nonzero"/><g clip-path="url(#31f1e08742)"><path fill="#9d5151" d="M 303.898438 300.613281 C 301.5 297.246094 300.636719 293.488281 299.5 289.722656 C 297.339844 287.082031 296.277344 287.335938 293.765625 287.941406 C 289.671875 288.921875 290.078125 292.109375 288.007812 293.195312 C 285.449219 294.539062 284.632812 291.050781 283.6875 288.425781 C 282.578125 293.191406 278.941406 296.507812 283.425781 301.859375 C 289.484375 309.089844 290.511719 312.960938 295.382812 314.746094 C 297.808594 315.640625 300.378906 315.707031 302.816406 315.15625 L 308.363281 313.910156 C 310.691406 313.386719 311.667969 310.625 310.1875 308.75 C 308.882812 307.09375 306.855469 304.769531 303.898438 300.613281 " fill-opacity="1" fill-rule="nonzero"/></g><path fill="#86a7e0" d="M 281.195312 286.105469 L 301.023438 284.582031 C 301.023438 284.582031 290.6875 225.1875 288.3125 213.851562 C 284.726562 196.714844 263.3125 200.902344 259.164062 211.820312 L 281.195312 286.105469 " fill-opacity="1" fill-rule="nonzero"/><path fill="#94d9d4" d="M 253.234375 289.148438 L 274.585938 283.226562 C 274.585938 283.226562 261.132812 218.988281 258.488281 213.003906 C 253.542969 201.808594 247.496094 201.792969 242.898438 202.511719 C 236.082031 203.574219 229.296875 210.449219 227.785156 217.800781 L 253.234375 289.148438 " fill-opacity="1" fill-rule="nonzero"/><path fill="#b45a41" d="M 286.859375 305.320312 C 281.230469 301.289062 277.109375 298.425781 273.949219 292.394531 C 270.703125 289.457031 269.757812 289.890625 267.191406 291.074219 C 263.367188 292.835938 264.386719 295.882812 262.566406 297.347656 C 260.480469 299.035156 259.054688 296.339844 257.710938 294.035156 C 257.335938 298.617188 254.921875 302.410156 260.109375 306.585938 C 267.546875 312.570312 270 315.855469 275.832031 316.355469 C 278.59375 316.59375 281.375 316.011719 283.910156 314.890625 C 287.957031 313.097656 295.054688 311.191406 286.859375 305.320312 " fill-opacity="1" fill-rule="nonzero"/><path fill="#334668" d="M 169.148438 124.730469 C 163.132812 117.175781 156.011719 108.425781 156.773438 98.289062 C 157.238281 92.132812 162.378906 84.90625 168.730469 85.800781 C 171.175781 86.144531 173.738281 85.851562 175.703125 84.355469 L 195.542969 89.472656 C 199.394531 94.625 200.039062 101.496094 197.488281 107.398438 L 194.34375 114.683594 L 169.148438 124.730469 " fill-opacity="1" fill-rule="nonzero"/><path fill="#f89a82" d="M 162.21875 102.558594 C 161.195312 90.527344 193.347656 89.316406 194.632812 98.84375 C 196.066406 106.28125 199.621094 123.457031 195.441406 130.613281 C 193.257812 134.355469 189.511719 136.121094 185.425781 136.71875 C 179.621094 137.570312 165.613281 136.992188 165.40625 126.175781 C 156.441406 122.300781 159.679688 110.789062 163.183594 112.152344 L 162.21875 102.558594 " fill-opacity="1" fill-rule="nonzero"/><path fill="#334668" d="M 165.386719 90.898438 L 168.414062 102.222656 C 167.042969 104.546875 166.46875 107.257812 166.777344 109.941406 L 167.152344 113.140625 C 167.28125 114.277344 166.464844 115.304688 165.328125 115.433594 C 164.191406 115.566406 163.160156 114.753906 163.027344 113.617188 L 162.335938 107.648438 C 161.863281 107.472656 161.371094 107.203125 160.867188 106.800781 C 156.636719 103.410156 159.988281 91.664062 165.386719 90.898438 " fill-opacity="1" fill-rule="nonzero"/><path fill="#334668" d="M 163.808594 96.054688 C 165.921875 95.769531 167.378906 95.097656 169.589844 95.316406 C 171.984375 95.558594 174.410156 95.875 176.777344 96.335938 C 181.027344 97.167969 185.25 98.417969 189.640625 98.445312 C 193.367188 98.46875 200.144531 97.21875 200.886719 92.742188 C 201.40625 89.625 199.15625 87.367188 196.625 85.828125 C 191.109375 82.464844 185.109375 81.925781 178.800781 83.152344 C 171.871094 84.492188 165.445312 88.410156 163.808594 96.054688 " fill-opacity="1" fill-rule="nonzero"/><path fill="#ffffff" d="M 186.21875 128.355469 C 184.457031 128.355469 182.804688 127.519531 181.765625 126.105469 L 179.75 123.359375 C 178.914062 122.222656 179.726562 120.621094 181.136719 120.621094 L 189.757812 120.621094 C 191.175781 120.621094 192.203125 121.976562 191.8125 123.339844 L 191.527344 124.347656 C 190.855469 126.71875 188.6875 128.355469 186.21875 128.355469 " fill-opacity="1" fill-rule="nonzero"/><path fill="#a9adc2" d="M 208.007812 204.625 L 206.867188 207.070312 C 204.511719 212.121094 199.4375 215.351562 193.859375 215.351562 L 138.78125 215.351562 C 132.34375 215.351562 126.691406 211.066406 124.960938 204.878906 L 124.890625 204.625 L 208.007812 204.625 " fill-opacity="1" fill-rule="nonzero"/><path fill="#86a7e0" d="M 208.007812 204.625 L 124.890625 204.625 C 124.089844 200.75 127.054688 197.113281 131.015625 197.113281 L 202.316406 197.113281 C 206.238281 197.113281 209.074219 200.855469 208.007812 204.625 " fill-opacity="1" fill-rule="nonzero"/><path fill="#f89a82" d="M 157.652344 173.238281 C 155.585938 176.394531 153.417969 179.5625 151.039062 182.515625 C 157.070312 184.1875 165.882812 186.386719 172.433594 187.988281 C 173.707031 188.300781 174.976562 187.855469 175.992188 187.03125 C 178.214844 185.226562 182.128906 184.507812 184.945312 186.296875 L 187.851562 188.601562 C 189.226562 189.691406 191.246094 189.695312 192.488281 188.460938 C 194.128906 186.824219 196.113281 186.308594 198.054688 186.238281 C 200.050781 186.167969 201.347656 188.332031 200.359375 190.066406 C 199.511719 191.550781 198.527344 193.277344 197.6875 194.75 C 196.5 196.835938 194.285156 198.117188 191.882812 198.117188 L 140.292969 198.179688 C 135.03125 197.988281 132.804688 197.84375 130.210938 193.957031 C 128.609375 191.558594 128.148438 188.839844 128.707031 186.402344 C 128.699219 186.117188 128.71875 185.835938 128.792969 185.578125 C 130.429688 179.753906 132.820312 171.109375 141.234375 156.667969 L 157.652344 173.238281 " fill-opacity="1" fill-rule="nonzero"/><path fill="#d9ecf6" d="M 141.234375 156.667969 C 142.585938 154.351562 144.089844 151.882812 145.773438 149.253906 C 147.46875 146.601562 151.261719 146.410156 153.257812 148.847656 C 154.894531 150.847656 156.394531 152.832031 157.671875 154.785156 C 161.347656 160.40625 161.328125 167.621094 157.652344 173.238281 L 141.234375 156.667969 " fill-opacity="1" fill-rule="nonzero"/><path fill="#d9ecf6" d="M 103.722656 86.667969 L 108.003906 86.667969 L 108.003906 49.539062 C 108.003906 48.359375 107.042969 47.398438 105.863281 47.398438 C 104.683594 47.398438 103.722656 48.359375 103.722656 49.539062 Z M 109.847656 90.347656 L 101.878906 90.347656 C 100.863281 90.347656 100.039062 89.523438 100.039062 88.507812 L 100.039062 49.539062 C 100.039062 46.332031 102.652344 43.71875 105.863281 43.71875 C 109.078125 43.71875 111.6875 46.332031 111.6875 49.539062 L 111.6875 88.507812 C 111.6875 89.523438 110.863281 90.347656 109.847656 90.347656 " fill-opacity="1" fill-rule="nonzero"/><path fill="#e4595c" d="M 97.8125 100.191406 C 103.179688 104.28125 108.546875 104.28125 113.914062 100.191406 C 116.765625 98.019531 118.316406 94.527344 118.316406 90.949219 L 118.316406 52.976562 L 93.410156 52.976562 L 93.410156 90.949219 C 93.410156 94.527344 94.960938 98.019531 97.8125 100.191406 " fill-opacity="1" fill-rule="nonzero"/><path fill="#d9ecf6" d="M 98.929688 98.726562 C 103.660156 102.332031 108.066406 102.335938 112.796875 98.726562 C 115.101562 96.972656 116.476562 94.0625 116.476562 90.945312 L 116.476562 54.8125 L 95.25 54.8125 L 95.25 90.945312 C 95.25 94.0625 96.625 96.972656 98.929688 98.726562 Z M 105.863281 105.078125 C 102.777344 105.078125 99.695312 103.9375 96.695312 101.652344 C 93.484375 99.203125 91.566406 95.203125 91.566406 90.945312 L 91.566406 52.972656 C 91.566406 51.957031 92.390625 51.132812 93.410156 51.132812 L 118.316406 51.132812 C 119.335938 51.132812 120.160156 51.957031 120.160156 52.972656 L 120.160156 90.945312 C 120.160156 95.203125 118.242188 99.203125 115.03125 101.652344 C 112.03125 103.9375 108.949219 105.078125 105.863281 105.078125 " fill-opacity="1" fill-rule="nonzero"/><path fill="#e4595c" d="M 143 226.75 C 140.0625 226.75 137.117188 226.191406 134.332031 225.066406 C 115.917969 217.628906 104.023438 200.007812 104.023438 180.171875 L 104.023438 78.117188 C 104.023438 77.101562 104.847656 76.277344 105.863281 76.277344 C 106.882812 76.277344 107.707031 77.101562 107.707031 78.117188 L 107.707031 180.171875 C 107.707031 198.503906 118.699219 214.78125 135.714844 221.65625 C 140.878906 223.742188 146.707031 223.515625 151.6875 221.023438 C 156.675781 218.539062 160.351562 214.023438 161.78125 208.644531 L 165.484375 194.683594 C 165.789062 193.523438 165.625 192.320312 165.015625 191.289062 C 164.40625 190.257812 163.433594 189.53125 162.273438 189.242188 L 157.011719 187.90625 C 156.023438 187.660156 155.429688 186.660156 155.675781 185.675781 C 155.925781 184.691406 156.929688 184.089844 157.914062 184.347656 L 163.175781 185.675781 C 165.296875 186.207031 167.078125 187.539062 168.1875 189.421875 C 169.300781 191.304688 169.605469 193.507812 169.042969 195.625 L 165.339844 209.582031 C 163.644531 215.984375 159.265625 221.355469 153.335938 224.316406 C 150.089844 225.9375 146.546875 226.75 143 226.75 " fill-opacity="1" fill-rule="nonzero"/><g clip-path="url(#f120ed586e)"><path fill="#94d9d4" d="M 105.40625 47.089844 C 105.382812 47.089844 105.355469 47.089844 105.328125 47.089844 C 103.632812 47.0625 102.097656 46.183594 101.222656 44.730469 L 99.257812 41.484375 C 98.730469 40.617188 99.011719 39.484375 99.882812 38.960938 C 100.75 38.441406 101.886719 38.710938 102.410156 39.582031 L 104.378906 42.828125 C 104.695312 43.363281 105.140625 43.394531 105.40625 43.414062 C 105.617188 43.414062 106.101562 43.355469 106.417969 42.863281 L 106.792969 42.285156 C 108.246094 40.039062 110.710938 38.695312 113.390625 38.695312 L 146.734375 38.695312 C 149.515625 38.695312 152.117188 40.1875 153.519531 42.585938 C 153.84375 43.140625 154.355469 43.203125 154.558594 43.203125 C 154.703125 43.207031 155.277344 43.152344 155.597656 42.628906 L 157.449219 39.582031 C 157.976562 38.714844 159.109375 38.4375 159.980469 38.964844 C 160.851562 39.488281 161.125 40.621094 160.597656 41.484375 L 158.75 44.53125 C 157.855469 46.003906 156.296875 46.882812 154.570312 46.882812 C 154.554688 46.882812 154.542969 46.882812 154.527344 46.882812 C 152.789062 46.867188 151.226562 45.960938 150.351562 44.464844 C 149.59375 43.167969 148.210938 42.375 146.734375 42.375 L 113.390625 42.375 C 111.96875 42.375 110.65625 43.085938 109.886719 44.28125 L 109.511719 44.859375 C 108.601562 46.261719 107.074219 47.089844 105.40625 47.089844 " fill-opacity="1" fill-rule="nonzero"/></g><path fill="#ffffff" d="M 113.214844 90.859375 L 98.511719 90.859375 C 98.460938 90.859375 98.421875 90.820312 98.421875 90.769531 L 98.421875 82.488281 C 98.421875 82.4375 98.460938 82.398438 98.511719 82.398438 L 113.214844 82.398438 C 113.265625 82.398438 113.304688 82.4375 113.304688 82.488281 L 113.304688 90.769531 C 113.304688 90.820312 113.265625 90.859375 113.214844 90.859375 " fill-opacity="1" fill-rule="nonzero"/></svg>